<?xml version="1.0" ?><svg id="Layer_1" style="enable-background:new 0 0 96 96;" version="1.1" viewBox="0 0 96 96" xml:space="preserve" xmlns="http://www.w3.org/2000/svg" xmlns:xlink="http://www.w3.org/1999/xlink"><path d="M78.5,44.3L60.4,26.2c-1-1-2.3-1.5-3.7-1.5c-1.4,0-2.7,0.6-3.7,1.5l-0.2,0.2l-0.1,0.1c-0.8,1-1.3,2.2-1.3,3.5v5  c0,1.4,0.6,2.8,1.6,3.7l9.3,9.3l-9.3,9.3c-1,1-1.5,2.3-1.5,3.7v5c0,1.3,0.5,2.5,1.3,3.5l0.1,0.1l0.2,0.2c1,1,2.3,1.5,3.7,1.5  s2.7-0.5,3.7-1.5l18.1-18.1l0.1-0.1C80.5,49.6,80.5,46.3,78.5,44.3z M75.6,48.9L75.6,48.9L75.6,48.9L57.6,67  c-0.2,0.2-0.5,0.4-0.9,0.4S56,67.2,55.8,67l0,0c-0.2-0.2-0.4-0.6-0.4-0.9v-5c0-0.3,0.1-0.7,0.4-0.9L67.9,48L55.8,35.8  c-0.2-0.2-0.4-0.6-0.4-0.9v-5c0-0.3,0.1-0.6,0.4-0.9l0,0c0.3-0.2,0.6-0.4,0.9-0.4s0.6,0.1,0.9,0.4l18.1,18.1  C76.1,47.6,76.1,48.4,75.6,48.9z M43.2,26.4L43,26.2c-1-1-2.3-1.5-3.7-1.5c-1.4,0-2.7,0.6-3.7,1.5L17.5,44.3c-2,2-2,5.3-0.1,7.4  l0.1,0.1l18.1,18.1c1,1,2.3,1.5,3.7,1.5c1.4,0,2.7-0.6,3.7-1.5l0.2-0.2l0.1-0.1c0.8-1,1.3-2.2,1.3-3.5v-5c0-1.4-0.6-2.7-1.5-3.7  L33.7,48l9.3-9.3c1-1,1.5-2.3,1.5-3.7v-5C44.6,28.7,44.1,27.4,43.2,26.4L43.2,26.4z M40.6,35c0,0.3-0.1,0.7-0.4,0.9L28.1,48  l12.1,12.2c0.2,0.2,0.4,0.6,0.4,0.9v5c0,0.3-0.1,0.7-0.4,0.9l0,0c-0.2,0.2-0.6,0.4-0.9,0.4c-0.3,0-0.6-0.1-0.9-0.4L20.4,48.9l0,0v0  c-0.5-0.5-0.5-1.3,0-1.8L38.4,29c0.2-0.2,0.6-0.4,0.9-0.4c0.3,0,0.6,0.1,0.9,0.4l0,0c0.2,0.2,0.4,0.6,0.4,0.9V35z M48,0  C21.5,0,0,21.5,0,48c0,26.5,21.5,48,48,48c26.5,0,48-21.5,48-48C96,21.5,74.5,0,48,0z M48,92C23.7,92,4,72.3,4,48  C4,23.7,23.7,4,48,4c24.3,0,44,19.7,44,44C92,72.3,72.3,92,48,92z M48,11c-20.4,0-37,16.6-37,37c0,20.5,16.6,37,37,37  c20.4,0,37-16.6,37-37C85,27.6,68.4,11,48,11z M48,81c-18.2,0-33-14.8-33-33c0-18.2,14.8-33,33-33c18.2,0,33,14.8,33,33  C81,66.2,66.2,81,48,81z"/></svg>